<?xml version="1.0" standalone="no"?>
<!DOCTYPE svg PUBLIC "-//W3C//DTD SVG 20010904//EN"
 "http://www.w3.org/TR/2001/REC-SVG-20010904/DTD/svg10.dtd">
<svg version="1.0" xmlns="http://www.w3.org/2000/svg"
 width="1476.000000pt" height="316.000000pt" viewBox="0 0 1476.000000 316.000000"
 preserveAspectRatio="xMidYMid meet">

<g transform="translate(0.000000,316.000000) scale(0.100000,-0.100000)"
fill="#000000" stroke="none">
<path d="M345 2918 c-56 -29 -74 -46 -101 -100 l-24 -47 0 -1194 c0 -1284 -2
-1223 50 -1290 12 -15 44 -39 71 -52 l48 -25 6991 0 6991 0 48 25 c53 26 85
60 107 114 21 50 21 2402 0 2452 -22 54 -54 88 -107 114 l-48 25 -6993 0
-6993 -1 -40 -21z m3320 -234 c120 -31 219 -114 277 -231 l33 -68 3 -323 c3
-276 1 -332 -13 -380 -38 -130 -152 -248 -275 -283 -25 -7 -47 -14 -48 -15 -2
-2 73 -151 167 -332 l171 -329 0 -126 0 -127 -185 0 -185 0 0 61 c0 61 -3 67
-207 455 l-208 394 -197 0 -198 0 -2 -453 -3 -452 -207 -3 -208 -2 0 1115 0
1115 613 0 c522 0 622 -2 672 -16z m975 -889 l0 -905 588 -2 587 -3 3 -207 2
-208 -795 0 -795 0 0 1115 0 1115 205 0 205 0 0 -905z m1875 249 c58 -382 102
-648 107 -637 4 10 44 180 88 378 45 198 84 363 86 367 3 5 34 8 69 8 l63 0
35 -147 c19 -82 59 -253 88 -380 30 -128 56 -229 60 -225 3 4 48 286 98 627
50 341 94 630 97 643 4 22 5 22 199 22 l195 0 0 -141 c0 -131 -11 -214 -145
-1110 -80 -533 -145 -971 -145 -974 0 -3 -98 -5 -218 -5 l-219 0 -53 249 c-30
138 -56 248 -58 246 -2 -2 -26 -104 -53 -227 -26 -123 -51 -233 -54 -245 -5
-23 -6 -23 -219 -23 l-214 0 -6 27 c-3 16 -71 461 -151 990 -128 848 -145 977
-145 1088 l0 125 198 0 198 0 99 -656z m3693 450 l2 -201 -411 -904 c-227
-497 -416 -910 -422 -916 -7 -10 -65 -13 -228 -13 -120 0 -220 3 -222 8 -3 4
180 412 407 907 l412 900 -563 3 -563 2 0 210 0 210 793 -2 792 -3 3 -201z
m697 -450 c58 -382 102 -648 107 -637 4 10 44 180 88 378 45 198 84 363 86
367 3 5 34 8 69 8 l63 0 35 -147 c19 -82 59 -253 88 -380 30 -128 56 -229 60
-225 3 4 48 286 98 627 50 341 94 630 97 643 4 22 5 22 199 22 l195 0 0 -141
c0 -131 -11 -214 -145 -1110 -80 -533 -145 -971 -145 -974 0 -3 -98 -5 -218
-5 l-219 0 -53 249 c-30 138 -56 248 -58 246 -2 -2 -26 -104 -53 -227 -26
-123 -51 -233 -54 -245 -5 -23 -6 -23 -219 -23 l-214 0 -6 27 c-3 16 -71 461
-151 990 -128 848 -145 977 -145 1088 l0 125 198 0 198 0 99 -656z"/>
<path d="M2800 2035 l0 -245 345 0 345 0 38 34 37 34 3 154 c4 173 -4 217 -47
247 -28 20 -42 21 -375 21 l-346 0 0 -245z"/>
</g>
</svg>
